<?xml version="1.0" encoding="UTF-8"?>
<!DOCTYPE svg PUBLIC "-//W3C//DTD SVG 1.1//EN" "http://www.w3.org/Graphics/SVG/1.1/DTD/svg11.dtd">
<svg xmlns="http://www.w3.org/2000/svg" xmlns:xlink="http://www.w3.org/1999/xlink" version="1.1" width="187px" height="187px" viewBox="-0.5 -0.5 187 187"><defs><style type="text/css">@import url(https://fonts.googleapis.com/css?family=Inconsolata);&#xa;</style></defs><g><path d="M 52.8 112 L 108.3 56.5 C 114.52 55.06 121.04 56.93 125.56 61.44 C 130.07 65.96 131.94 72.48 130.5 78.7 L 75 134.2 C 77.68 141.99 77.68 150.46 75 158.25 C 51.17 154.52 32.48 135.83 28.75 112 C 36.54 109.32 45.01 109.32 52.8 112 Z M 28.75 1 L 84.25 56.5 L 56.5 84.25 L 1 28.75 Z M 130.5 102.75 L 186 158.25 L 158.25 186 L 102.75 130.5 Z M 172.13 143.67 L 143.91 172.83 M 158.25 130.5 L 130.5 158.25 M 144.38 116.63 L 116.63 144.38 M 42.63 14.88 L 14.88 42.63 M 56.5 28.75 L 28.75 56.5 M 70.38 42.63 L 42.63 70.38" fill="none" stroke="#000000" stroke-width="3.7" stroke-miterlimit="10" pointer-events="all"/><path d="M 31.89 123.1 L 37.08 149.92 L 72.22 149 M 14.88 14.88 L 70.38 70.38 M 116.63 116.63 L 172.13 172.13" fill="none" stroke="#000000" stroke-width="3.7" stroke-miterlimit="10" pointer-events="all"/><rect x="1" y="1" width="0" height="0" fill="none" stroke="#000000" stroke-width="3.7" pointer-events="all"/><path d="M 74.08 66.67 L 86.1 78.7 L 78.7 86.1 L 66.67 74.08 Z M 104.6 97.2 L 120.33 112.92 L 112.92 120.33 L 97.2 104.6 C 97.2 100.51 100.51 97.2 104.6 97.2 Z" fill="none" stroke="#000000" stroke-width="3.7" stroke-miterlimit="10" pointer-events="all"/><path d="M 95.35 69.45 C 106.63 71.55 115.45 80.37 117.55 91.65 M 71.3 93.5 C 82.58 95.6 91.4 104.42 93.5 115.7 M 67.6 97.2 C 78.88 99.3 87.7 108.12 89.8 119.4 M 52.8 112 C 63.13 115.74 71.26 123.87 75 134.2 M 28.75 112 C 52.58 115.73 71.27 134.42 75 158.25" fill="none" stroke="#000000" stroke-width="3.7" stroke-miterlimit="10" pointer-events="all"/><path d="M 100.9 71.3 L 76.85 95.35 M 105.53 74.08 L 81.47 98.13" fill="none" stroke="#000000" stroke-width="3.7" stroke-miterlimit="10" pointer-events="all"/><ellipse cx="36.15" cy="150.85" rx="3.7" ry="3.7" fill="none" stroke="#000000" stroke-width="3.7" pointer-events="all"/><path d="M 26.9 150.85 C 26.9 155.96 31.04 160.1 36.15 160.1 L 36.15 163.8 C 32.72 163.8 29.42 162.44 26.99 160.01 C 24.56 157.58 23.2 154.28 23.2 150.85 Z M 17.65 150.85 C 17.65 161.07 25.93 169.35 36.15 169.35 L 36.15 173.05 C 30.26 173.05 24.62 170.71 20.45 166.55 C 16.29 162.38 13.95 156.74 13.95 150.85 Z M 8.4 150.85 C 8.4 166.18 20.82 178.6 36.15 178.6 L 36.15 182.3 C 27.81 182.3 19.81 178.99 13.91 173.09 C 8.01 167.19 4.7 159.19 4.7 150.85 Z" fill="none" stroke="#000000" stroke-width="3.7" stroke-miterlimit="10" pointer-events="all"/></g></svg>