<?xml version="1.0" encoding="utf-8"?>
<!-- Generator: Adobe Illustrator 26.0.3, SVG Export Plug-In . SVG Version: 6.00 Build 0)  -->
<svg version="1.1" id="Laag_1" xmlns="http://www.w3.org/2000/svg" xmlns:xlink="http://www.w3.org/1999/xlink" x="0px" y="0px"
	 viewBox="0 0 1150.6 148.1" style="enable-background:new 0 0 1150.6 148.1;" xml:space="preserve">
<style type="text/css">
	.st0{fill:url(#SVGID_1_);}
	.st1{fill:url(#SVGID_00000100341885989260402170000000523772664708829348_);}
</style>
<g id="Laag_2_00000066492806445148715530000006677832692979100565_">
	<g id="Laag_1-2">
		<path d="M2.5,51.7h17.2c14.2,0,24,9.9,24,25.5s-9.6,26.3-24.1,26.3H2.5V51.7z M6.5,99.8H19c13.7,0,20.4-9.6,20.4-22.4
			c0-11.4-6.1-22-20.4-22H6.5V99.8z"/>
		<path d="M54.7,85.4c0.1,9.5,4.9,15.5,12,15.5s9.3-4,10.7-7h3.8c-1.6,4.9-5.5,10.4-14.6,10.4c-11.2,0-15.6-9.7-15.6-19.1
			c0-10.6,5.3-19.7,16.1-19.7c11.4,0,15,9.8,15,16.8c0,1,0,2.1-0.1,3L54.7,85.4z M78.2,82.2c-0.1-7.3-4.1-13.1-11.3-13.1
			c-7.6,0-11.1,5.3-11.9,13.1H78.2z"/>
		<path d="M91.2,66.5c6,16.9,10.1,28.5,11.5,33.2h0.1c0.8-2.7,5-13.8,12.1-33.2h3.9l-14,37h-4.4l-13.2-37H91.2z"/>
		<path d="M126.9,85.4c0.1,9.5,4.9,15.5,12,15.5c7,0,9.3-3.9,10.7-7h3.8c-1.6,4.9-5.5,10.4-14.6,10.4c-11.2,0-15.6-9.7-15.6-19.1
			c0-10.6,5.2-19.7,16-19.7c11.4,0,15,9.8,15,16.8c0,1,0,2.1-0.1,3L126.9,85.4z M150.4,82.2c-0.1-7.3-4.1-13.1-11.3-13.1
			c-7.6,0-11.1,5.3-11.9,13.1H150.4z"/>
		<path d="M163.6,103.5V49h3.7v54.5H163.6z"/>
		<path d="M209.4,85c0,10.3-5.7,19.5-16.7,19.5c-10,0-16.2-8.2-16.2-19.4c0-10.6,5.8-19.4,16.6-19.4C202.8,65.6,209.4,73.3,209.4,85
			z M180.4,85c0,8.8,4.7,15.9,12.6,15.9s12.5-6.6,12.5-15.9c0-8.7-4.4-15.9-12.6-15.9C184.3,69.1,180.4,76.1,180.4,85L180.4,85z"/>
		<path d="M222.2,98v20.3h-3.7V75.6c0-3,0-6.3-0.1-9.1h3.6c0.1,1.4,0.1,3.6,0.1,6.7c2.3-4.4,6.4-7.5,13-7.5
			c8.7,0,14.8,7.3,14.8,18.4c0,13.3-7.1,20.4-16.1,20.4C227.5,104.4,224.1,101.5,222.2,98z M246.1,84.2c0-8.6-4.1-15-11.5-15
			c-9,0-12.6,5.6-12.6,15.7c0,9.9,2.9,16.1,12.2,16.1C241.8,101,246.1,94.4,246.1,84.2L246.1,84.2z"/>
		<path d="M260.6,85.4c0.1,9.6,4.9,15.5,12,15.5s9.3-4,10.6-7h3.8c-1.5,4.9-5.5,10.4-14.6,10.4c-11.2,0-15.6-9.7-15.6-19.1
			c0-10.6,5.2-19.7,16.1-19.7c11.4,0,15,9.8,15,16.8c0,1,0,2.1-0.1,3L260.6,85.4z M284,82.2c-0.1-7.3-4.1-13.1-11.3-13.1
			c-7.6,0-11.1,5.3-11.9,13.1H284z"/>
		<path d="M325.8,49v43.9c0,3.6,0,7,0.1,10.7h-3.6c-0.1-0.9-0.2-4.4-0.2-6.2c-1.9,4.5-6,7.1-12.4,7.1c-9.6,0-15.4-7.8-15.4-19
			c0-11.4,6.3-19.8,16.4-19.8c7.4,0,10.4,3.2,11.5,5.6V49H325.8z M298.2,85.3c0,10.1,5.3,15.7,11.6,15.7c9.8,0,12.4-6.7,12.4-16.8
			c0-9.6-2.3-15-11.8-15C303.2,69.1,298.2,75,298.2,85.3z"/>
		<path d="M384.9,92.7c0,3.6,0.1,9.4,0.1,10.8h-3.6c-0.2-2.1-0.2-4.3-0.2-6.4c-1.5,4.4-5.3,7.3-11.9,7.3c-5.3,0-12.1-2.1-12.1-13.4
			V66.5h3.6v23.6c0,5.4,1.7,10.7,9,10.7c8.3,0,11.4-4.7,11.4-15.2v-19h3.7V92.7z"/>
		<path d="M396.6,93.3c1.3,4.8,4.6,7.7,10.5,7.7c6.6,0,9.2-3,9.2-7.2s-1.8-6.3-10.1-8.3c-9.5-2.3-11.9-5.2-11.9-10.1
			c0-5.1,3.9-9.8,12.2-9.8s12.4,5.1,13,10.4h-3.7c-0.7-3.1-3.1-7-9.4-7s-8.3,3.2-8.3,6.1c0,3.4,1.8,5.1,9.1,6.9
			c10.4,2.5,13,5.9,13,11.5c0,6.7-5.5,10.9-13.2,10.9c-8.4,0-13.2-4.4-14.2-11.1L396.6,93.3z"/>
		<path d="M429.4,49h3.7v7.2h-3.7V49z M429.4,66.5h3.7v37h-3.7V66.5z"/>
		<path d="M445.3,75.8c0-3.3,0-6.4-0.1-9.3h3.6c0.1,1.2,0.2,6,0.1,7c1.6-3.8,4.7-7.9,12.3-7.9c6.6,0,12.4,3.7,12.4,13.9v24H470V80.1
			c0-6.6-2.7-10.9-9.2-10.9c-8.8,0-11.8,7.3-11.8,15.4v18.9h-3.7L445.3,75.8z"/>
		<path d="M514.1,101c0,11.8-5.2,18.1-16,18.1c-9.6,0-13.6-5.4-14.5-11h3.8c1.3,5.1,5.5,7.6,10.9,7.6c9.6,0,12.3-6.2,12.3-15.6v-3.9
			c-2,4.8-5.6,7.4-12.4,7.4c-8.7,0-15.3-7-15.3-18.5c0-12.4,7.1-19.4,15.8-19.4c7.5,0,10.8,3.6,11.8,6.5c0.1-2.2,0.2-4.7,0.2-5.6
			h3.5c0,1.3-0.2,7.2-0.2,10.7L514.1,101z M486.8,84.8c0,8.8,4.7,15.2,11.8,15.2c9.2,0,12.1-6.1,12.1-15.8s-3-15.2-11.9-15.2
			C490.3,69.1,486.8,76.4,486.8,84.8L486.8,84.8z"/>
		
			<linearGradient id="SVGID_1_" gradientUnits="userSpaceOnUse" x1="578.5741" y1="459.6741" x2="683.226" y2="564.3259" gradientTransform="matrix(1 0 0 1 -7.25 -438)">
			<stop  offset="0" style="stop-color:#EC1C24"/>
			<stop  offset="0.99" style="stop-color:#A43232;stop-opacity:0.99"/>
		</linearGradient>
		<path class="st0" d="M623.7,0c30.7,0,55.5,24.8,55.5,55.5c0,30.7-24.8,55.5-55.5,55.5s-55.5-24.8-55.5-55.5c0,0,0,0,0,0
			C568.1,24.9,593,0,623.7,0c-40.9,0-74,33.1-74,74s33.1,74,74,74s74-33.1,74-74S664.5,0,623.7,0"/>
		
			<linearGradient id="SVGID_00000084508643829036792920000018146454635858750628_" gradientUnits="userSpaceOnUse" x1="603.14" y1="484.24" x2="658.66" y2="484.24" gradientTransform="matrix(1 0 0 1 -7.25 -438)">
			<stop  offset="0" style="stop-color:#EC1C24"/>
			<stop  offset="1" style="stop-color:#A43232"/>
		</linearGradient>
		<path style="fill:url(#SVGID_00000084508643829036792920000018146454635858750628_);" d="M623.7,74c15.3,0,27.8-12.4,27.8-27.8
			S639,18.5,623.7,18.5s-27.8,12.4-27.8,27.8S608.3,74,623.7,74L623.7,74"/>
		<path d="M721,74.6v-0.2c0-18.1,14.3-32.9,33.9-32.9s33.7,14.6,33.7,32.7v0.2c0,18.1-14.3,32.9-33.9,32.9S721,92.7,721,74.6z
			 M774,74.6v-0.2c0-10.9-8-20-19.3-20s-19.1,8.9-19.1,19.8v0.2c0,10.9,8,20,19.3,20S774,85.5,774,74.6L774,74.6z"/>
		<path d="M799.6,57.5h13.8v7c3.4-4.5,8-7.9,15.2-7.9c11.4,0,22.2,8.9,22.2,25.2v0.2c0,16.3-10.6,25.2-22.2,25.2
			c-5.9,0.1-11.6-2.6-15.2-7.3v20.9h-13.8V57.5z M837,81.9v-0.2c0-8.1-5.5-13.4-11.9-13.4s-11.8,5.4-11.8,13.4v0.2
			c0,8.1,5.4,13.4,11.8,13.4S837,90.1,837,81.9L837,81.9z"/>
		<path d="M858.6,82.1v-0.2c0-13.9,9.9-25.4,24.1-25.4c16.3,0,23.7,12.6,23.7,26.5c0,1.1-0.1,2.4-0.2,3.6h-33.9
			c1.4,6.3,5.7,9.6,11.9,9.6c4.6,0,8-1.5,11.8-5l7.9,7c-4.5,5.6-11.1,9.1-19.9,9.1C869.4,107.3,858.6,97,858.6,82.1z M893,78
			c-0.8-6.2-4.5-10.4-10.3-10.4s-9.5,4.1-10.5,10.4H893z"/>
		<path d="M916.7,57.5h13.8v6.9c3.2-4.1,7.3-7.8,14.3-7.8c10.5,0,16.5,6.9,16.5,18.1v31.6h-13.8V79c0-6.6-3.1-9.9-8.4-9.9
			s-8.6,3.4-8.6,9.9v27.2h-13.8V57.5z"/>
		<path d="M974.8,42.6h14v25.2h25.8V42.6h14v63.6h-14V80.7h-25.8v25.6h-14V42.6z"/>
		<path d="M1043.9,42.6h26c15.2,0,24.4,9,24.4,22v0.2c0,14.7-11.4,22.4-25.7,22.4h-10.6v19.1h-14V42.6z M1068.9,74.7
			c7,0,11.1-4.2,11.1-9.6v-0.2c0-6.3-4.4-9.6-11.4-9.6h-10.8v19.4H1068.9z"/>
		<path d="M1100.2,96.9l8.3-9.9c5.7,4.7,11.7,7.7,19,7.7c5.7,0,9.2-2.3,9.2-6v-0.2c0-3.5-2.2-5.4-12.8-8.1
			c-12.8-3.3-21.1-6.8-21.1-19.5v-0.2c0-11.5,9.3-19.2,22.3-19.2c8.6-0.1,16.9,2.7,23.6,8.1l-7.3,10.5c-5.6-3.9-11.2-6.3-16.5-6.3
			s-8.2,2.5-8.2,5.5v0.2c0,4.2,2.7,5.6,13.7,8.4c12.9,3.4,20.2,8,20.2,19.1v0.2c0,12.6-9.6,19.7-23.4,19.7
			C1117.3,107.1,1107.7,103.5,1100.2,96.9z"/>
	</g>
</g>
</svg>
