<?xml version="1.0" encoding="utf-8"?>
<!-- Generator: Adobe Illustrator 16.0.0, SVG Export Plug-In . SVG Version: 6.00 Build 0)  -->
<!DOCTYPE svg PUBLIC "-//W3C//DTD SVG 1.1//EN" "http://www.w3.org/Graphics/SVG/1.1/DTD/svg11.dtd">
<svg version="1.1" id="Layer_1" xmlns="http://www.w3.org/2000/svg" xmlns:xlink="http://www.w3.org/1999/xlink" x="0px" y="0px"
	 width="2048px" height="512px" viewBox="0 0 2048 512" enable-background="new 0 0 2048 512" xml:space="preserve">
<path fill="#FFFFFF" d="M267.928,8.448c102.537,0,185.66,83.121,185.66,185.664c0,102.542-83.123,185.663-185.66,185.663
	c-102.542,0-185.663-83.121-185.663-185.663C82.265,91.569,165.387,8.448,267.928,8.448C131.212,8.448,20.377,119.284,20.377,256
	c0,136.716,110.835,247.551,247.551,247.551c136.72,0,247.547-110.835,247.547-247.551C515.475,119.284,404.648,8.448,267.928,8.448
	"/>
<path fill="#FFFFFF" d="M267.928,256c51.275,0,92.829-41.561,92.829-92.832c0-51.271-41.554-92.831-92.829-92.831
	c-51.271,0-92.831,41.561-92.831,92.831C175.097,214.439,216.658,256,267.928,256"/>
<g>
	<path fill="#FFFFFF" d="M593.35,257.826v-0.607c0-60.496,47.729-110.048,113.393-110.048s112.784,48.944,112.784,109.44v0.608
		c0,60.496-47.728,110.049-113.392,110.049S593.35,318.323,593.35,257.826z M770.583,257.826v-0.607
		c0-36.48-26.752-66.88-64.448-66.88c-37.696,0-63.84,29.792-63.84,66.272v0.608c0,36.48,26.752,66.881,64.448,66.881
		S770.583,294.307,770.583,257.826z"/>
	<path fill="#FFFFFF" d="M856.308,200.675h46.208v23.408c11.248-15.2,26.752-26.448,50.768-26.448c38,0,74.176,29.792,74.176,84.208
		v0.608c0,54.416-35.568,84.208-74.176,84.208c-24.624,0-39.824-11.248-50.768-24.32v69.921h-46.208V200.675z M981.252,282.451
		v-0.608c0-27.056-18.24-44.992-39.824-44.992c-21.584,0-39.521,17.936-39.521,44.992v0.608c0,27.056,17.936,44.992,39.521,44.992
		C963.012,327.443,981.252,309.811,981.252,282.451z"/>
	<path fill="#FFFFFF" d="M1053.6,283.059v-0.607c0-46.512,33.137-84.816,80.561-84.816c54.416,0,79.345,42.256,79.345,88.465
		c0,3.647-0.305,7.903-0.608,12.159h-113.393c4.561,20.976,19.152,31.92,39.824,31.92c15.504,0,26.752-4.863,39.521-16.72
		l26.448,23.408c-15.2,18.848-37.089,30.4-66.576,30.4C1089.776,367.268,1053.6,332.915,1053.6,283.059z M1168.513,269.379
		c-2.736-20.672-14.896-34.656-34.353-34.656c-19.152,0-31.616,13.68-35.264,34.656H1168.513z"/>
	<path fill="#FFFFFF" d="M1247.854,200.675h46.208v23.104c10.641-13.68,24.32-26.144,47.729-26.144
		c34.96,0,55.328,23.104,55.328,60.496v105.488h-46.208v-90.896c0-21.888-10.336-33.136-27.968-33.136
		c-17.633,0-28.881,11.248-28.881,33.136v90.896h-46.208V200.675z"/>
	<path fill="#FFFFFF" d="M1442.104,150.818h46.816v84.208h86.336v-84.208h46.816v212.801h-46.816v-85.424h-86.336v85.424h-46.816
		V150.818z"/>
	<path fill="#FFFFFF" d="M1673.144,150.818h86.944c50.768,0,81.472,30.096,81.472,73.568v0.608
		c0,49.248-38.304,74.785-86.032,74.785h-35.567v63.84h-46.816V150.818z M1757.048,258.131c23.408,0,37.088-13.984,37.088-32.224
		v-0.608c0-20.976-14.592-32.224-38-32.224h-36.176v65.056H1757.048z"/>
	<path fill="#FFFFFF" d="M1861.623,332.611l27.664-33.137c19.151,15.809,39.216,25.841,63.536,25.841
		c19.151,0,30.704-7.601,30.704-20.064v-0.608c0-11.855-7.296-17.936-42.864-27.056c-42.864-10.944-70.528-22.8-70.528-65.056
		v-0.608c0-38.608,31.008-64.145,74.48-64.145c31.008,0,57.456,9.728,79.04,27.056l-24.32,35.264
		c-18.848-13.072-37.392-20.976-55.328-20.976c-17.936,0-27.36,8.208-27.36,18.544v0.608c0,13.984,9.12,18.544,45.904,27.968
		c43.168,11.248,67.488,26.751,67.488,63.84v0.608c0,42.256-32.224,65.968-78.128,65.968
		C1919.687,366.659,1887.159,355.411,1861.623,332.611z"/>
</g>
<g>
</g>
<g>
</g>
<g>
</g>
<g>
</g>
<g>
</g>
<g>
</g>
<g>
</g>
</svg>
