<?xml version="1.0" encoding="utf-8"?>
<!-- Generator: Adobe Illustrator 26.0.3, SVG Export Plug-In . SVG Version: 6.00 Build 0)  -->
<svg version="1.1" id="Layer_1" xmlns="http://www.w3.org/2000/svg" xmlns:xlink="http://www.w3.org/1999/xlink" x="0px" y="0px"
	 viewBox="0 0 256 256" style="enable-background:new 0 0 256 256;" xml:space="preserve">
<style type="text/css">
	.st0{fill:#EB2027;}
</style>
<path class="st0" d="M127,0c52.6,0,95.2,42.6,95.2,95.2s-42.6,95.2-95.2,95.2s-95.2-42.6-95.2-95.2S74.4,0,127,0
	C56.9,0,0,56.9,0,127s56.9,127,127,127s127-56.9,127-127S197.1,0,127,0"/>
<path class="st0" d="M127,127c26.3,0,47.6-21.3,47.6-47.6c0-26.3-21.3-47.6-47.6-47.6c-26.3,0-47.6,21.3-47.6,47.6
	C79.4,105.7,100.7,127,127,127"/>
</svg>
