<?xml version="1.0" encoding="utf-8"?>
<!-- Generator: Adobe Illustrator 24.0.2, SVG Export Plug-In . SVG Version: 6.00 Build 0)  -->
<svg version="1.1" id="Layer_1" xmlns="http://www.w3.org/2000/svg" xmlns:xlink="http://www.w3.org/1999/xlink" x="0px" y="0px"
	 viewBox="0 0 256 256" style="enable-background:new 0 0 256 256;" xml:space="preserve">
<style type="text/css">
	.st0{fill:url(#SVGID_1_);}
	.st1{fill:url(#SVGID_2_);}
</style>
<linearGradient id="SVGID_1_" gradientUnits="userSpaceOnUse" x1="38.1984" y1="38.1985" x2="217.8028" y2="217.8029">
	<stop  offset="0" style="stop-color:#EB2027"/>
	<stop  offset="1" style="stop-color:#A43332"/>
</linearGradient>
<path class="st0" d="M128,1c52.6,0,95.25,42.64,95.25,95.25S180.61,191.5,128,191.5c-52.61,0-95.25-42.64-95.25-95.25S75.39,1,128,1
	C57.86,1,1,57.86,1,128c0,70.14,56.86,127,127,127c70.14,0,127-56.86,127-127C255,57.86,198.14,1,128,1"/>
<linearGradient id="SVGID_2_" gradientUnits="userSpaceOnUse" x1="94.3241" y1="46.6991" x2="161.6774" y2="114.0524">
	<stop  offset="0" style="stop-color:#EB2027"/>
	<stop  offset="1" style="stop-color:#A43332"/>
</linearGradient>
<path class="st1" d="M128,128c26.31,0,47.63-21.32,47.63-47.63c0-26.3-21.32-47.63-47.63-47.63c-26.3,0-47.62,21.32-47.62,47.63
	C80.38,106.68,101.7,128,128,128"/>
</svg>
